<?xml version="1.0" encoding="utf-8"?>
<!-- Generator: Adobe Illustrator 22.1.0, SVG Export Plug-In . SVG Version: 6.00 Build 0)  -->
<svg version="1.1" id="Layer_1" xmlns="http://www.w3.org/2000/svg" xmlns:xlink="http://www.w3.org/1999/xlink" x="0px" y="0px"
	 width="512px" height="512px" viewBox="0 0 512 512" style="enable-background:new 0 0 512 512;" xml:space="preserve">
<style type="text/css">
	.st0{fill:#FFFFFF;}
</style>
<g>
	<path class="st0" d="M204.8,383.8c32.9,0,63.5-8.8,89.9-24.3c15.4-9.1,35-6.8,47.7,5.9L458,481c3.2,3.2,7.1,4.8,11.5,4.8
		c4.6,0,8.7-1.7,11.9-5.2c5.9-6.3,5.4-16.7-0.7-22.8L367.7,344.6c-13.9-13.9-16.7-35.2-7-52.3c14.7-25.9,23.2-55.9,23.2-87.6
		c0-98.8-80.1-178.9-178.9-179c-98.3-0.1-178.7,80-179.1,178.3C25.4,303.2,106.1,383.8,204.8,383.8z M202.9,58.4
		c83.4-1,150.9,67.9,148.2,151.2c-2.5,78-66.5,140.7-144.5,141.7c-83.4,1-150.9-67.9-148.2-151.2C60.9,122.1,124.9,59.3,202.9,58.4z
		"/>
</g>
</svg>
